#!OML:ASF I:\Actors\actors\Patient Classification 1\Patient 1\Session 1\Subject1.ASF
:FULLY-SPECIFIED
:DEGREES
1563
root -0.607465 16.6616 8.13802 90.1656 -46.7005 -3.90998
lowerback 25.218 -0.566879 6.80091
upperback 6.28156 1.13275 5.46473
thorax -7.00492 0.330904 1.79967
lowerneck 3.48283 -8.50801 -4.79926
upperneck -27.6139 -8.32385 22.575
head -7.63202 -6.60904 9.29507
rclavicle 2.54444e-014 1.00983e-013
rhumerus -44.2002 -0.451213 -92.8546
rradius 146.026
rwrist -56.4717
rhand 53.4057 -75.0668
rfingers 7.12502
rthumb 72.0035 -63.0512
lclavicle 2.54444e-014 1.00983e-013
lhumerus -54.5648 -1.17758 107.072
lradius 141.085
lwrist 68.2491
lhand 68.9431 -7.59356
lfingers 7.12502
lthumb 74.0235 -432.277
rfemur -95.5832 -11.9976 -43.0331
rtibia 5.51385
rfoot -12.019 -22.429
rtoes 26.3314
lfemur -86.8992 3.90331 -57.7467
ltibia 3.05331
lfoot -5.65729 13.3177
ltoes -17.0641
1564
root -0.600191 16.653 8.13931 90.4002 -46.5894 -4.21356
lowerback 25.3031 -0.368146 6.52537
upperback 6.19229 1.352 5.74115
thorax -7.16063 0.431243 2.19928
lowerneck 3.31729 -8.45228 -4.77957
upperneck -27.4943 -8.35804 22.1159
head -7.58755 -6.55746 9.10042
rclavicle -1.50281e-013 -1.54853e-013
rhumerus -43.3578 1.76115 -94.9424
rradius 145.065
rwrist -57.4952
rhand 50.7954 -75.5689
rfingers 7.12502
rthumb 70.4634 -69.7656
lclavicle -1.50281e-013 -1.54853e-013
lhumerus -52.2132 -2.7018 107.981
lradius 140.027
lwrist 70.768
lhand 70.1711 -4.58074
lfingers 7.12502
lthumb 73.5702 -433.193
rfemur -95.8501 -11.9651 -42.7929
rtibia 5.63767
rfoot -12.0996 -22.3217
rtoes 26.6879
lfemur -87.063 4.05839 -58.2357
ltibia 2.92431
lfoot -5.77384 12.8505
ltoes -16.9003
1565
root -0.579507 16.6475 8.1408 90.4745 -46.8151 -4.40929
lowerback 25.4395 -0.17349 6.03111
upperback 6.14875 1.50417 5.88295
thorax -7.29856 0.506552 2.59399
lowerneck 3.16298 -8.45607 -4.63777
upperneck -27.5998 -8.40307 21.8659
head -7.61404 -6.56984 8.98832
rclavicle 1.35174e-014 1.21259e-014
rhumerus -43.5726 5.99609 -95.2082
rradius 144.379
rwrist -59.8436
rhand 46.9011 -73.7876
rfingers 7.12502
rthumb 67.8043 -75.4714
lclavicle 1.35174e-014 1.21259e-014
lhumerus -52.2756 -4.16461 107.744
lradius 139.873
lwrist 69.5302
lhand 70.1203 -6.18967
lfingers 7.12502
lthumb 73.5905 -434.644
rfemur -95.9489 -12.0361 -42.8852
rtibia 5.68574
rfoot -12.1699 -22.1872
rtoes 26.913
lfemur -86.9092 4.13135 -59.0635
ltibia 2.53006
lfoot -5.79738 12.3831
ltoes -17.0553
1566
root -0.549027 16.6434 8.14161 90.6033 -47.3292 -4.65137
lowerback 25.5076 0.0832799 5.28104
upperback 6.14241 1.64901 5.86976
thorax -7.36714 0.58589 2.96275
lowerneck 3.13282 -8.50915 -4.34403
upperneck -27.9087 -8.42272 21.884
head -7.72972 -6.63843 8.97994
rclavicle -1.43125e-014 -6.75868e-014
rhumerus -44.2323 10.2494 -94.5695
rradius 144.486
rwrist -59.8846
rhand 45.7071 -71.7543
rfingers 7.12502
rthumb 66.9217 -75.3672
lclavicle -1.43125e-014 -6.75868e-014
lhumerus -52.474 -5.18959 106.403
lradius 140.279
lwrist 66.8626
lhand 68.9257 -5.62489
lfingers 7.12502
lthumb 74.0293 -430.251
rfemur -96.0216 -12.1961 -43.2487
rtibia 5.6698
rfoot -12.1815 -22.074
rtoes 27.0556
lfemur -86.5923 4.18429 -60.1855
ltibia 1.86594
lfoot -5.75646 11.8971
ltoes -17.1827
1567
root -0.520132 16.634 8.14864 90.9073 -47.2621 -4.80786
lowerback 25.252 0.183098 5.25745
upperback 6.10198 1.75324 5.91002
thorax -7.28693 0.636226 2.98673
lowerneck 3.17769 -8.5627 -3.92722
upperneck -28.3557 -8.43794 21.8088
head -7.92383 -6.71943 8.94055
rclavicle -2.38542e-015 9.46215e-014
rhumerus -44.8695 12.9593 -91.8435
rradius 144.687
rwrist -59.4009
rhand 46.0283 -68.827
rfingers 7.12502
rthumb 67.1618 -71.9359
lclavicle -2.38542e-015 9.46215e-014
lhumerus -52.9949 -6.07174 104.311
lradius 140.813
lwrist 64.2359
lhand 68.2653 -7.54453
lfingers 7.12502
lthumb 74.2392 -429.967
rfemur -96.1335 -12.3949 -43.0696
rtibia 5.62533
rfoot -12.203 -21.9934
rtoes 27.3822
lfemur -86.5911 4.07363 -60.7337
ltibia 1.34607
lfoot -5.70629 11.3229
ltoes -17.0233
